<?xml version="1.0" encoding="UTF-8" standalone="no"?>
<svg
   xmlns:dc="http://purl.org/dc/elements/1.1/"
   xmlns:cc="http://creativecommons.org/ns#"
   xmlns:rdf="http://www.w3.org/1999/02/22-rdf-syntax-ns#"
   xmlns:svg="http://www.w3.org/2000/svg"
   xmlns="http://www.w3.org/2000/svg"
   viewBox="0 0 1133.8586 1133.8586"
   height="1133.8586"
   width="1133.8586"
   xml:space="preserve"
   id="svg2"
   version="1.1"><metadata
     id="metadata8"><rdf:RDF><cc:Work
         rdf:about=""><dc:format>image/svg+xml</dc:format><dc:type
           rdf:resource="http://purl.org/dc/dcmitype/StillImage" /></cc:Work></rdf:RDF></metadata><defs
     id="defs6"><clipPath
       id="clipPath22"
       clipPathUnits="userSpaceOnUse"><path
         id="path20"
         d="M 0,850.394 H 850.394 V 0 H 0 Z" /></clipPath></defs><g
     transform="matrix(1.3333333,0,0,-1.3333333,0,1133.8587)"
     id="g10"><g
       transform="translate(576.0301,262.9142)"
       id="g12"><path
         id="path14"
         style="fill:#e66113;fill-opacity:1;fill-rule:nonzero;stroke:none"
         d="m 0,0 -20.689,-20.138 -9.627,0.885 15.488,20.622 z" /></g><g
       id="g16"><g
         clip-path="url(#clipPath22)"
         id="g18"><g
           transform="translate(276.8622,220.7289)"
           id="g24"><path
             id="path26"
             style="fill:#e66113;fill-opacity:1;fill-rule:nonzero;stroke:none"
             d="m 0,0 c 0,5.844 0.794,11.638 2.37,17.428 1.595,5.787 3.917,11.21 6.991,16.275 3.074,5.065 6.809,9.572 11.208,13.512 4.414,3.934 9.418,7.043 15.058,9.3 3.163,1.223 6.397,1.984 9.671,2.292 3.265,0.311 6.648,0.467 10.131,0.467 3.581,0 7.014,-0.442 10.288,-1.313 3.274,-0.866 6.468,-1.832 9.596,-2.911 3.118,-1.075 6.266,-2.051 9.445,-2.918 3.171,-0.877 6.443,-1.298 9.821,-1.298 2.568,0 4.984,0.502 7.301,1.524 2.292,1.03 4.724,1.539 7.29,1.539 v -0.145 c 0,-0.216 -0.023,-0.622 -0.074,-1.238 -0.051,-0.612 -0.285,-0.973 -0.697,-1.079 -0.414,-0.198 -1.127,-0.555 -2.154,-1.072 -1.012,-0.505 -2.094,-1.075 -3.219,-1.68 -1.13,-0.612 -2.172,-1.178 -3.152,-1.698 C 98.903,46.469 98.221,46.119 97.808,45.91 94.434,43.975 91.636,41.333 89.438,38.004 87.239,34.676 85.274,31.015 83.534,27.028 81.781,23.035 80.098,18.988 78.469,14.899 76.825,10.806 74.873,7.096 72.625,3.76 70.38,0.435 67.651,-2.274 64.486,-4.368 61.315,-6.463 57.323,-7.524 52.521,-7.524 c -3.801,0 -7.299,0.962 -10.529,2.844 -3.229,1.886 -4.844,4.988 -4.844,9.293 0,2.352 0.621,4.626 1.854,6.834 1.222,2.196 3.222,3.3 5.986,3.3 1.626,0 3.069,-0.513 4.298,-1.546 1.233,-1.019 1.841,-2.349 1.841,-3.986 0,-2.459 -1.024,-3.973 -3.07,-4.532 -2.043,-0.555 -3.888,-0.841 -5.531,-0.841 0,-2.965 1.182,-5.052 3.541,-6.222 2.349,-1.186 4.848,-1.769 7.526,-1.769 3.988,0 7.639,1.482 10.977,4.457 3.313,2.971 6.187,6.611 8.594,10.898 2.402,4.301 4.245,8.808 5.524,13.516 1.282,4.712 1.919,8.804 1.919,12.285 0,3.678 -0.844,6.727 -2.526,9.14 -1.685,2.398 -3.848,4.319 -6.455,5.755 -2.609,1.44 -5.501,2.462 -8.677,3.071 -3.17,0.615 -6.289,0.916 -9.356,0.916 -13.311,0 -23.739,-3.856 -31.245,-11.585 -7.534,-7.736 -11.298,-18.04 -11.298,-30.94 0,-6.969 1.251,-13.718 3.764,-20.279 2.502,-6.544 6.042,-12.328 10.599,-17.34 4.556,-5.012 9.926,-9.044 16.116,-12.051 6.203,-3.017 12.971,-4.531 20.352,-4.531 6.849,0 12.921,1.376 18.188,4.138 5.27,2.773 10.263,6.562 14.977,11.372 0.614,0.612 1.404,1.783 2.382,3.516 0.969,1.751 1.908,3.52 2.834,5.31 0.926,1.786 1.786,3.371 2.606,4.765 0.818,1.372 1.443,2.072 1.845,2.072 1.036,0 1.532,-0.566 1.532,-1.698 0,-1.637 -0.552,-3.526 -1.679,-5.677 -1.132,-2.143 -2.104,-3.94 -2.921,-5.377 -5.123,-8.705 -11.898,-15.606 -20.35,-20.731 -8.44,-5.119 -17.833,-7.662 -28.171,-7.662 -7.373,0 -14.283,1.245 -20.728,3.753 -6.445,2.508 -12.085,5.982 -16.885,10.438 -4.816,4.454 -8.603,9.806 -11.364,16.045 C 1.379,-14.329 0,-7.478 0,0" /></g><g
           transform="translate(349.0591,274.6542)"
           id="g28"><path
             id="path30"
             style="fill:#e66113;fill-opacity:1;fill-rule:nonzero;stroke:none"
             d="m 0,0 c 0.145,-0.074 0.28,-0.152 0.417,-0.233 2.876,-1.574 5.292,-3.714 7.14,-6.371 1.928,-2.756 2.908,-6.236 2.908,-10.315 0,-2.794 -0.4,-5.999 -1.178,-9.532 0.055,0.123 0.106,0.251 0.165,0.378 1.788,4.093 3.832,7.899 6.077,11.287 2.371,3.577 5.415,6.456 9.058,8.55 0.521,0.269 1.185,0.616 2.134,1.118 l 1.618,0.859 C 23.118,-5.89 17.26,-5.221 12.02,-3.767 8.854,-2.908 5.626,-1.914 2.444,-0.817 1.638,-0.538 0.817,-0.265 0,0 m -27.208,-41.23 c -2.002,0 -3.334,-0.722 -4.19,-2.243 -1.076,-1.92 -1.596,-3.831 -1.596,-5.84 0,-3.551 1.252,-6.013 3.817,-7.52 0.193,-0.11 0.375,-0.212 0.562,-0.311 -1.637,1.291 -3.102,3.459 -3.102,7.06 v 2.048 h 2.047 c 1.444,0 3.121,0.262 4.984,0.768 0.76,0.219 1.57,0.601 1.57,2.557 0,1.029 -0.345,1.79 -1.1,2.416 -0.861,0.711 -1.839,1.065 -2.992,1.065 m -29.303,26.441 c -1.666,-2.055 -3.191,-4.227 -4.565,-6.502 -2.943,-4.839 -5.215,-10.137 -6.775,-15.748 -1.516,-5.585 -2.291,-11.266 -2.291,-16.886 0,-7.16 1.329,-13.799 3.964,-19.738 2.644,-5.971 6.301,-11.128 10.88,-15.373 4.597,-4.245 10.057,-7.623 16.243,-10.039 6.169,-2.398 12.892,-3.615 19.982,-3.615 9.915,0 19.036,2.483 27.11,7.379 5.981,3.622 11.137,8.231 15.415,13.746 -4.579,-4.525 -9.497,-8.182 -14.625,-10.877 -5.534,-2.901 -11.986,-4.369 -19.143,-4.369 -7.653,0 -14.8,1.589 -21.242,4.737 -6.405,3.112 -12.037,7.322 -16.74,12.514 -4.722,5.193 -8.424,11.242 -10.997,17.991 -2.594,6.745 -3.903,13.813 -3.903,21.008 0,10.035 2.246,18.666 6.687,25.772 m 37.438,-92.004 c -7.603,0 -14.824,1.316 -21.474,3.898 -6.667,2.607 -12.579,6.254 -17.531,10.852 -4.998,4.613 -8.983,10.248 -11.845,16.714 -2.861,6.473 -4.319,13.671 -4.319,21.404 0,5.978 0.819,12.016 2.434,17.972 1.655,5.982 4.082,11.631 7.218,16.799 3.171,5.214 7.068,9.922 11.593,13.979 4.593,4.096 9.862,7.35 15.665,9.664 3.316,1.284 6.762,2.104 10.233,2.437 6.855,0.644 14.462,0.867 21.146,-0.902 C -2.656,5.15 0.612,4.156 3.776,3.06 6.878,1.999 10.014,1.029 13.1,0.184 c 5.113,-1.412 10.854,-2.052 15.745,0.127 2.555,1.136 5.293,1.716 8.128,1.716 h 2.052 v -2.055 c 0,-0.386 -0.027,-0.853 -0.078,-1.56 -0.17,-1.868 -1.309,-2.554 -1.958,-2.794 l -2.02,-1.016 c -0.985,-0.498 -2.05,-1.047 -3.159,-1.652 -1.321,-0.718 -2.276,-1.234 -3.18,-1.708 -0.992,-0.52 -1.687,-0.888 -2.111,-1.097 -2.97,-1.708 -5.559,-4.159 -7.568,-7.194 -2.113,-3.195 -4.038,-6.792 -5.736,-10.662 -1.744,-3.979 -3.411,-8.004 -5.039,-12.076 -1.685,-4.209 -3.719,-8.079 -6.047,-11.521 -2.384,-3.53 -5.314,-6.455 -8.717,-8.701 -3.491,-2.314 -7.895,-3.488 -13.088,-3.488 -4.135,0 -8.029,1.047 -11.565,3.123 -3.889,2.282 -5.859,5.996 -5.859,11.061 0,2.696 0.712,5.317 2.117,7.839 1.586,2.84 4.271,4.347 7.775,4.347 2.119,0 4.007,-0.675 5.611,-2.009 1.688,-1.404 2.577,-3.339 2.577,-5.575 0,-3.378 -1.62,-5.691 -4.574,-6.508 -1.329,-0.357 -2.589,-0.619 -3.777,-0.771 0.339,-1.129 1.029,-1.921 2.149,-2.466 2.09,-1.061 4.257,-1.563 6.618,-1.563 3.498,0 6.639,1.287 9.609,3.933 3.141,2.812 5.891,6.307 8.166,10.371 2.315,4.149 4.112,8.536 5.339,13.053 1.229,4.506 1.852,8.464 1.852,11.743 0,3.226 -0.727,5.915 -2.163,7.966 -1.498,2.13 -3.426,3.856 -5.752,5.129 -2.416,1.33 -5.129,2.289 -8.072,2.844 -3.022,0.598 -6.036,0.892 -8.979,0.892 -12.685,0 -22.704,-3.686 -29.773,-10.969 -7.113,-7.298 -10.715,-17.223 -10.715,-29.504 0,-6.7 1.217,-13.262 3.63,-19.533 2.396,-6.279 5.826,-11.9 10.199,-16.7 4.357,-4.81 9.565,-8.712 15.497,-11.591 5.886,-2.872 12.43,-4.326 19.45,-4.326 6.498,0 12.295,1.312 17.24,3.908 5.055,2.653 9.929,6.353 14.457,10.987 0.283,0.28 0.909,1.036 2.059,3.088 0.96,1.726 1.889,3.463 2.796,5.246 0.95,1.829 1.829,3.449 2.663,4.853 1.113,1.861 2.149,3.099 3.617,3.099 2.181,0 3.583,-1.479 3.583,-3.757 0,-1.981 -0.643,-4.209 -1.913,-6.629 -1.141,-2.179 -2.124,-3.99 -2.954,-5.444 -5.286,-8.981 -12.37,-16.183 -21.071,-21.456 -8.721,-5.296 -18.555,-7.977 -29.234,-7.977" /></g><g
           transform="translate(385.4203,191.713)"
           id="g32"><path
             id="path34"
             style="fill:#e66113;fill-opacity:1;fill-rule:nonzero;stroke:none"
             d="m 0,0 c 0,3.987 0.941,7.463 2.839,10.449 1.885,2.957 4.352,5.416 7.369,7.364 3.011,1.946 6.343,3.4 9.981,4.373 3.632,0.976 7.237,1.45 10.822,1.45 3.888,0 7.25,-0.428 10.062,-1.302 2.808,-0.87 6.018,-2.115 9.596,-3.756 l 0.614,0.615 v 0.308 c 0,0.619 -0.414,1.712 -1.234,3.307 -0.811,1.574 -1.373,2.579 -1.681,2.989 -2.059,3.576 -4.229,6.519 -6.533,8.826 -2.308,2.306 -5.61,3.462 -9.901,3.462 -2.559,0 -4.865,-0.339 -6.912,-1 -2.039,-0.669 -4.246,-1.617 -6.598,-2.848 -1.127,-0.714 -2.075,-1.379 -2.849,-1.995 -0.772,-0.608 -1.808,-0.923 -3.147,-0.923 v 2.31 c 1.945,2.352 3.231,3.834 3.84,4.456 0.102,0.092 0.461,0.478 1.082,1.146 0.617,0.665 1.167,0.991 1.682,0.991 H 39 c 1.224,0 2.704,-0.424 4.452,-1.302 1.735,-0.873 3.011,-1.51 3.838,-1.917 4.398,-2.561 8.031,-5.836 10.892,-9.826 2.874,-3.987 5.174,-8.288 6.926,-12.897 0.099,-0.205 0.299,-0.768 0.605,-1.68 0.308,-0.931 0.64,-1.953 0.994,-3.088 0.357,-1.118 0.709,-2.151 1.072,-3.067 0.361,-0.909 0.591,-1.486 0.697,-1.684 0,-0.205 0.131,-0.566 0.387,-1.072 0.26,-0.523 0.481,-0.874 0.695,-1.075 l 7.674,-21.199 c 0.097,-0.403 0.156,-0.665 0.156,-0.764 0,-0.821 -0.211,-1.482 -0.614,-1.998 l -3.373,-0.446 h -1.089 c -0.516,0 -1.256,0.067 -2.223,0.219 -0.966,0.145 -1.518,0.227 -1.613,0.227 -0.513,0.208 -0.98,0.742 -1.387,1.612 -0.398,0.871 -0.722,1.462 -0.923,1.773 -1.436,3.477 -2.938,7.47 -4.517,11.974 -1.597,4.506 -3.536,8.751 -5.837,12.748 -2.311,3.986 -5.118,7.336 -8.445,10.053 -3.328,2.716 -7.403,4.074 -12.207,4.074 -6.972,0 -12.523,-1.768 -16.666,-5.306 -4.14,-3.53 -6.221,-8.821 -6.221,-15.889 0,-5.023 1.572,-9.062 4.69,-12.125 3.118,-3.074 6.783,-5.487 10.974,-7.216 h 10.446 c 2.148,0 4.294,0.785 6.45,2.376 2.145,1.589 4.06,3.29 5.755,5.14 1.699,1.85 3.067,3.555 4.149,5.143 1.075,1.589 1.65,2.381 1.767,2.381 0.507,0 0.787,-0.205 0.831,-0.605 0.057,-0.425 0.082,-0.824 0.082,-1.238 0,-1.125 -0.179,-1.935 -0.547,-2.458 -0.343,-0.513 -0.93,-1.483 -1.744,-2.912 -2.463,-4.297 -5.939,-7.134 -10.449,-8.524 -4.506,-1.38 -9.006,-2.066 -13.505,-2.066 -3.483,0 -7.094,0.407 -10.831,1.227 -3.741,0.814 -7.082,2.095 -10.051,3.838 -2.968,1.73 -5.432,4.036 -7.373,6.901 C 0.967,-7.577 0,-4.093 0,0" /></g><g
           transform="translate(404.5833,229.8904)"
           id="g36"><path
             id="path38"
             style="fill:#e66113;fill-opacity:1;fill-rule:nonzero;stroke:none"
             d="m 0,0 c 0.009,-0.039 -0.12,-0.131 -0.313,-0.339 -0.748,-0.825 -1.096,-1.178 -1.199,-1.278 -0.195,-0.194 -0.474,-0.498 -0.842,-0.923 0.164,0.106 0.338,0.212 0.515,0.344 1.666,0.863 3.233,1.598 4.725,2.196 z M 9.183,-55.782 H 19.22 c 1.713,0 3.429,0.65 5.229,1.988 2.034,1.499 3.879,3.134 5.46,4.874 1.598,1.726 2.926,3.378 3.971,4.906 1.73,2.582 2.205,3.283 3.461,3.283 0.734,0 1.366,-0.223 1.864,-0.595 -1.268,3.103 -2.722,6.077 -4.346,8.879 -2.166,3.76 -4.844,6.954 -7.955,9.487 -2.976,2.437 -6.549,3.615 -10.907,3.615 -6.431,0 -11.591,-1.617 -15.332,-4.804 -3.698,-3.162 -5.5,-7.856 -5.5,-14.336 0,-4.478 1.331,-7.977 4.071,-10.669 2.826,-2.78 6.178,-5.008 9.947,-6.628 m -5.207,38.375 c -0.803,-0.166 -1.613,-0.353 -2.421,-0.569 -3.421,-0.92 -6.585,-2.299 -9.392,-4.11 -2.771,-1.79 -5.042,-4.061 -6.752,-6.757 -1.702,-2.642 -2.521,-5.691 -2.521,-9.334 0,-3.718 0.837,-6.757 2.556,-9.286 1.751,-2.596 4.01,-4.708 6.717,-6.292 2.766,-1.624 5.946,-2.837 9.45,-3.598 0.831,-0.194 1.659,-0.347 2.478,-0.495 -2.844,1.588 -5.435,3.526 -7.727,5.769 -3.523,3.467 -5.301,8.04 -5.301,13.594 0,7.644 2.338,13.519 6.94,17.449 1.756,1.503 3.753,2.717 5.973,3.629 m 46.101,-40.14 c 0.3,-0.039 0.697,-0.103 1.174,-0.177 0.817,-0.128 1.466,-0.202 1.898,-0.202 h 1.089 l 1.928,0.276 c 0.011,0.046 0.011,0.082 0.011,0.124 l -0.106,0.301 -7.48,20.604 c -0.237,0.308 -0.468,0.686 -0.721,1.206 -0.285,0.577 -0.46,1.022 -0.545,1.422 -0.142,0.326 -0.348,0.831 -0.616,1.524 -0.376,0.952 -0.755,2.021 -1.119,3.198 l -0.989,3.042 c -0.253,0.768 -0.417,1.249 -0.513,1.458 -1.761,4.605 -4,8.779 -6.727,12.564 -2.694,3.746 -6.145,6.866 -10.261,9.264 l -3.733,1.85 c -0.361,0.187 -0.709,0.34 -1.045,0.481 0.651,-0.435 1.25,-0.941 1.805,-1.5 2.411,-2.412 4.718,-5.532 6.852,-9.242 0.023,0 0.469,-0.612 1.73,-3.085 1.028,-1.991 1.463,-3.261 1.463,-4.237 v -0.857 l -1.228,-1.524 -0.957,-0.952 c 2.453,-2.412 4.609,-5.221 6.433,-8.379 2.343,-4.072 4.356,-8.479 5.999,-13.092 1.553,-4.443 3.061,-8.433 4.487,-11.878 0.044,0 0.43,-0.693 0.884,-1.705 0.122,-0.244 0.218,-0.396 0.287,-0.484 m -38.068,-5.094 c -3.619,0 -7.407,0.425 -11.275,1.273 -3.93,0.86 -7.506,2.232 -10.649,4.072 -3.229,1.899 -5.934,4.421 -8.033,7.527 -2.165,3.184 -3.263,7.085 -3.263,11.592 0,4.379 1.061,8.266 3.148,11.545 2.041,3.205 4.735,5.886 8.003,7.998 3.159,2.044 6.714,3.59 10.555,4.616 7.922,2.119 16.266,1.914 22.014,0.145 1.999,-0.622 4.19,-1.433 6.535,-2.416 -1.055,2.062 -1.423,2.6 -1.487,2.685 -2.099,3.618 -4.178,6.438 -6.337,8.603 -1.917,1.92 -4.685,2.857 -8.449,2.857 -2.338,0 -4.451,-0.307 -6.278,-0.891 -1.96,-0.647 -4.075,-1.567 -6.281,-2.723 -0.905,-0.588 -1.791,-1.193 -2.513,-1.78 -1.151,-0.909 -2.639,-1.365 -4.434,-1.365 h -2.046 v 5.094 l 0.467,0.562 c 1.952,2.381 3.284,3.919 3.965,4.598 0.163,0.156 0.432,0.446 0.845,0.906 1.219,1.309 2.262,1.846 3.373,1.846 h 19.968 c 1.558,0 3.312,-0.502 5.368,-1.528 l 3.83,-1.903 c 4.746,-2.762 8.628,-6.257 11.65,-10.481 2.942,-4.071 5.356,-8.57 7.179,-13.36 0.05,-0.074 0.285,-0.714 0.63,-1.768 l 1.012,-3.103 c 0.339,-1.086 0.679,-2.062 1.024,-2.932 0.306,-0.806 0.507,-1.313 0.615,-1.503 l 0.207,-0.432 0.014,-0.509 c -0.011,0.215 0.073,0.025 0.165,-0.153 0.21,-0.417 0.3,-0.533 0.316,-0.544 l 0.354,-0.34 0.119,-0.417 7.682,-21.188 c 0.207,-0.842 0.276,-1.146 0.276,-1.468 0,-1.284 -0.359,-2.377 -1.057,-3.265 l -0.518,-0.647 -5.554,-0.591 c -0.577,0 -1.433,0.078 -2.533,0.244 -0.79,0.131 -1.263,0.202 -1.441,0.219 l -0.623,0.138 c -1.011,0.4 -1.848,1.298 -2.483,2.646 -0.343,0.743 -0.6,1.249 -0.769,1.503 -1.634,3.86 -3.177,7.931 -4.756,12.434 -0.08,0.241 -0.166,0.47 -0.248,0.693 0,-0.155 0.004,-0.315 0.004,-0.477 0,-1.574 -0.294,-2.774 -0.909,-3.64 -0.317,-0.471 -0.872,-1.383 -1.649,-2.745 -2.718,-4.747 -6.63,-7.934 -11.628,-9.473 -4.68,-1.432 -9.422,-2.154 -14.105,-2.154" /></g><g
           transform="translate(467.8737,173.595)"
           id="g40"><path
             id="path42"
             style="fill:#e66113;fill-opacity:1;fill-rule:nonzero;stroke:none"
             d="m 0,0 c 0,0.612 0.385,1.047 1.146,1.305 0.768,0.251 1.664,0.506 2.69,0.764 1.024,0.255 2.018,0.541 2.991,0.849 0.976,0.315 1.671,0.821 2.079,1.529 0.915,1.443 1.508,2.943 1.76,4.538 0.255,1.588 0.436,3.197 0.538,4.839 0.207,5.932 0.361,11.842 0.467,17.728 0.108,5.879 0.14,11.793 0.14,17.733 v 7.371 l -1.224,1.075 H 3.988 c -0.405,0 -1.252,0.149 -2.536,0.461 -1.277,0.307 -1.924,0.816 -1.924,1.538 v 0.149 c 0.108,0.212 0.472,0.619 1.078,1.234 h 9.524 c 0.619,0 1.056,0.895 1.304,2.681 0.248,1.79 0.465,3.838 0.625,6.152 0.152,2.302 0.27,4.474 0.378,6.512 0.088,2.055 0.246,3.381 0.451,3.997 0.826,3.07 2.052,6.013 3.691,8.829 1.641,2.819 3.585,5.306 5.84,7.446 2.248,2.15 4.805,3.866 7.671,5.146 2.863,1.284 5.99,1.914 9.37,1.914 1.324,0 2.845,-0.131 4.522,-0.371 1.692,-0.259 3.279,-0.722 4.763,-1.398 1.484,-0.661 2.734,-1.584 3.756,-2.755 1.032,-1.174 1.551,-2.639 1.551,-4.383 0,-1.733 -0.493,-2.915 -1.468,-3.53 -0.972,-0.605 -2.283,-0.916 -3.917,-0.916 -1.954,0 -3.504,0.488 -4.685,1.461 -1.171,0.969 -2.223,2.069 -3.146,3.307 -0.915,1.217 -1.833,2.324 -2.767,3.293 -0.911,0.973 -2.085,1.461 -3.531,1.461 -3.163,0 -5.671,-1.054 -7.515,-3.151 -1.845,-2.091 -3.078,-4.588 -3.695,-7.443 -0.2,-3.07 -0.437,-6.07 -0.686,-8.985 -0.26,-2.914 -0.379,-5.815 -0.379,-8.669 v -2.306 c 0.096,-1.026 0.193,-2.385 0.301,-4.068 0.101,-1.684 0.205,-2.593 0.308,-2.696 l 1.692,-1.853 h 11.675 c 0.205,0 0.346,-0.191 0.44,-0.598 0.114,-0.407 0.16,-0.722 0.16,-0.913 0,-0.633 -0.294,-0.937 -0.915,-0.937 h -3.056 c -1.45,0 -2.931,-0.039 -4.464,-0.148 -1.542,-0.1 -3.014,-0.252 -4.459,-0.461 -0.617,-0.307 -1.054,-0.792 -1.303,-1.457 -0.26,-0.661 -0.379,-1.309 -0.379,-1.921 V 15.507 c 0,-1.846 0.119,-3.633 0.379,-5.376 0.249,-1.741 0.741,-3.325 1.462,-4.754 0.719,-1.436 1.718,-2.614 2.988,-3.53 1.291,-0.92 2.998,-1.387 5.155,-1.387 0.101,-0.414 0.149,-0.669 0.149,-0.768 0,-0.106 -0.025,-0.368 -0.076,-0.764 -0.046,-0.417 -0.227,-0.612 -0.542,-0.612 H 1.68 c -0.407,0 -0.785,0.174 -1.148,0.531 C 0.175,-0.792 0,-0.414 0,0" /></g><g
           transform="translate(504.8503,275.2026)"
           id="g44"><path
             id="path46"
             style="fill:#e66113;fill-opacity:1;fill-rule:nonzero;stroke:none"
             d="m 0,0 c 0.98,-0.347 1.848,-0.913 2.591,-1.705 0.969,-1.022 1.947,-2.183 2.913,-3.481 0.797,-1.068 1.747,-2.058 2.814,-2.957 0.806,-0.658 1.913,-0.969 3.372,-0.969 1.237,0 2.181,0.195 2.834,0.594 0.447,0.287 0.5,1.358 0.5,1.793 0,1.249 -0.343,2.232 -1.04,3.025 -0.838,0.958 -1.834,1.705 -3.056,2.25 -1.309,0.59 -2.731,0.997 -4.23,1.227 C 4.038,0.177 1.975,0.216 0,0 m -31.573,-101.243 h 20.243 c -1.436,1.089 -2.565,2.472 -3.384,4.089 -0.811,1.641 -1.375,3.449 -1.655,5.38 -0.262,1.811 -0.398,3.714 -0.398,5.674 v 38.846 c 0,0.87 0.172,1.765 0.518,2.653 0.413,1.11 1.182,1.977 2.22,2.522 l -1.586,1.729 c -0.542,0.549 -0.685,1.15 -0.844,3.955 -0.106,1.652 -0.205,2.989 -0.297,3.994 l -0.011,2.504 c 0,2.936 0.129,5.911 0.389,8.847 0.253,2.907 0.48,5.889 0.685,8.946 0.371,1.771 0.916,3.378 1.63,4.838 -1.719,-1.803 -3.248,-3.848 -4.564,-6.084 -1.534,-2.656 -2.701,-5.461 -3.479,-8.33 -0.059,-0.184 -0.267,-0.895 -0.379,-3.555 -0.115,-2.08 -0.235,-4.251 -0.387,-6.572 -0.161,-2.359 -0.379,-4.454 -0.631,-6.275 -0.124,-0.863 -0.435,-3.06 -1.817,-4.011 l 2.211,-1.928 v -8.302 c 0,-5.946 -0.044,-11.878 -0.142,-17.761 -0.111,-5.907 -0.263,-11.832 -0.468,-17.771 -0.11,-1.765 -0.299,-3.445 -0.568,-5.097 -0.294,-1.85 -0.985,-3.633 -2.053,-5.309 -0.63,-1.09 -1.709,-1.921 -3.187,-2.381 -0.672,-0.215 -1.355,-0.41 -2.046,-0.601 m 26.375,-4.103 h -30.099 c -0.654,0 -1.639,0.191 -2.591,1.124 -0.949,0.955 -1.14,1.939 -1.14,2.614 0,1.5 0.956,2.721 2.555,3.255 0.798,0.261 1.746,0.53 2.83,0.799 0.998,0.255 1.951,0.524 2.879,0.828 0.462,0.141 0.777,0.343 0.922,0.598 0.813,1.287 1.294,2.515 1.51,3.827 0.248,1.521 0.418,3.074 0.51,4.634 0.208,5.882 0.355,11.772 0.474,17.651 0.093,5.861 0.129,11.768 0.129,17.693 v 6.388 h -5.77 c -0.396,0 -1.112,0.064 -3.015,0.531 -3.039,0.728 -3.488,2.518 -3.488,3.527 v 0.491 l 0.221,0.605 c 0.209,0.414 0.582,0.849 1.445,1.719 l 0.598,0.615 h 9.482 c 0.053,0.213 0.118,0.51 0.173,0.924 0.237,1.74 0.454,3.735 0.603,5.985 0.151,2.303 0.273,4.471 0.384,6.498 0.122,2.932 0.373,3.99 0.548,4.527 0.84,3.127 2.151,6.258 3.866,9.226 1.73,2.971 3.808,5.62 6.198,7.898 2.416,2.303 5.191,4.167 8.248,5.533 3.11,1.393 6.546,2.09 10.209,2.09 1.424,0 3.045,-0.131 4.823,-0.396 1.871,-0.287 3.649,-0.803 5.306,-1.546 1.751,-0.785 3.259,-1.896 4.464,-3.283 1.358,-1.549 2.051,-3.477 2.051,-5.734 0,-3.087 -1.321,-4.562 -2.426,-5.259 -1.309,-0.825 -2.989,-1.238 -5.011,-1.238 -2.421,0 -4.439,0.647 -5.988,1.927 -1.328,1.1 -2.494,2.332 -3.49,3.654 -0.863,1.168 -1.726,2.194 -2.603,3.12 -0.532,0.566 -1.167,0.814 -2.048,0.814 -2.565,0 -4.521,-0.789 -5.98,-2.444 -1.599,-1.833 -2.685,-4.019 -3.22,-6.527 -0.163,-2.79 -0.407,-5.79 -0.651,-8.733 -0.251,-2.816 -0.379,-5.674 -0.379,-8.486 v -2.306 c 0.096,-0.853 0.2,-2.225 0.31,-3.941 0.049,-0.834 0.088,-1.443 0.139,-1.832 l 0.704,-0.785 h 10.778 c 0.925,0 2.061,-0.57 2.439,-2.186 0.142,-0.481 0.214,-0.973 0.214,-1.383 0,-1.762 -1.215,-2.982 -2.968,-2.982 h -3.056 c -1.404,0 -2.838,-0.046 -4.322,-0.152 -1.332,-0.096 -2.616,-0.205 -3.859,-0.386 -0.048,-0.049 -0.089,-0.113 -0.122,-0.216 -0.168,-0.435 -0.257,-0.82 -0.257,-1.188 V -86.1 c 0,-1.751 0.124,-3.46 0.365,-5.073 0.215,-1.506 0.64,-2.9 1.27,-4.142 0.569,-1.135 1.338,-2.044 2.36,-2.791 0.913,-0.654 2.243,-0.99 3.945,-0.99 h 1.59 l 0.392,-1.546 c 0.173,-0.7 0.218,-1.012 0.218,-1.273 0,-0.138 -0.027,-0.485 -0.096,-1.023 -0.189,-1.659 -1.427,-2.408 -2.573,-2.408" /></g><g
           transform="translate(501.4491,202.1618)"
           id="g48"><path
             id="path50"
             style="fill:#e66113;fill-opacity:1;fill-rule:nonzero;stroke:none"
             d="m 0,0 c 0,4.595 0.861,8.953 2.607,13.042 1.744,4.103 4.149,7.676 7.219,10.746 3.071,3.074 6.631,5.472 10.671,7.22 4.046,1.737 8.364,2.607 12.967,2.607 3.173,0 6.093,-0.563 8.769,-1.684 2.648,-1.129 5.465,-2.052 8.435,-2.766 l 8.291,-5.522 c 0.82,-0.516 1.224,-1.383 1.224,-2.621 0,-1.436 -0.978,-2.766 -2.913,-3.986 C 55.321,15.808 53.84,14.832 52.813,14.125 48.114,10.439 43.269,6.558 38.315,2.519 33.335,-1.517 28.4,-5.38 23.494,-9.073 c -0.419,-0.403 -0.877,-0.633 -1.384,-0.69 -0.521,-0.056 -1.083,-0.078 -1.686,-0.078 0,0.821 0.073,1.412 0.232,1.78 0.139,0.347 0.541,0.739 1.144,1.146 0.41,0.301 1.44,1.118 3.065,2.458 1.643,1.323 3.401,2.735 5.302,4.227 1.896,1.472 3.64,2.876 5.22,4.217 1.586,1.33 2.587,2.136 2.992,2.458 1.636,1.319 3.3,2.635 4.991,3.905 1.694,1.288 3.203,2.745 4.539,4.386 v 0.612 c 0,1.734 -0.881,3.445 -2.608,5.14 -1.747,1.694 -3.763,3.173 -6.071,4.453 -2.303,1.281 -4.623,2.328 -6.979,3.148 -2.352,0.814 -4.149,1.224 -5.382,1.224 -5.124,0 -9.466,-1.86 -13.049,-5.603 -3.59,-3.728 -5.375,-8.114 -5.375,-13.119 0,-3.796 0.768,-7.74 2.301,-11.829 1.537,-4.085 3.656,-7.835 6.376,-11.206 2.71,-3.382 5.859,-6.172 9.437,-8.366 3.582,-2.203 7.429,-3.31 11.514,-3.31 2.878,0 5.582,0.523 8.138,1.538 2.56,1.026 4.975,2.356 7.219,3.994 0.101,0.106 0.668,0.594 1.682,1.461 1.026,0.866 1.749,1.51 2.158,1.921 1.127,1.015 2.117,2.147 2.985,3.374 0.883,1.238 1.926,2.306 3.154,3.233 h 0.309 c 0.612,0 0.914,-0.368 0.914,-1.09 0,-0.905 -0.481,-2.04 -1.441,-3.37 -0.983,-1.33 -2.135,-2.639 -3.465,-3.916 -1.329,-1.284 -2.697,-2.459 -4.062,-3.53 -1.38,-1.083 -2.496,-1.918 -3.297,-2.537 -3.083,-2.147 -6.388,-4.071 -9.917,-5.755 -3.533,-1.687 -7.238,-2.536 -11.133,-2.536 -4.395,0 -8.521,0.789 -12.365,2.384 -3.83,1.582 -7.161,3.782 -9.966,6.608 -2.815,2.805 -5.03,6.133 -6.616,9.971 C 0.783,-8.532 0,-4.418 0,0" /></g><g
           transform="translate(530.0706,233.364)"
           id="g52"><path
             id="path54"
             style="fill:#e66113;fill-opacity:1;fill-rule:nonzero;stroke:none"
             d="m 0,0 c 1.192,-0.195 2.618,-0.587 4.296,-1.174 2.481,-0.863 4.933,-1.971 7.311,-3.297 2.441,-1.344 4.622,-2.954 6.497,-4.768 2.15,-2.094 3.236,-4.309 3.236,-6.615 v -0.867 c 0.529,0.421 1.061,0.835 1.589,1.256 1.133,0.803 2.642,1.79 4.63,3.039 0.722,0.452 1.949,1.361 1.949,2.246 0,0.714 -0.184,0.831 -0.255,0.87 l -8.045,5.369 c -2.924,0.722 -5.745,1.649 -8.396,2.774 C 9.031,0.431 4.335,0.658 0,0 m -1.752,-3.941 c -4.576,0 -8.357,-1.623 -11.573,-4.969 -3.227,-3.368 -4.8,-7.192 -4.8,-11.701 0,-3.51 0.729,-7.248 2.174,-11.107 1.392,-3.711 3.307,-7.135 5.702,-10.202 v 0.877 c 0,1.132 0.124,1.96 0.398,2.59 0.281,0.714 0.891,1.372 1.873,2.03 0.347,0.258 1.339,1.054 2.932,2.356 1.649,1.323 3.419,2.748 5.327,4.248 1.868,1.465 3.599,2.847 5.159,4.178 1.635,1.354 2.655,2.189 3.064,2.504 1.62,1.316 3.3,2.635 5.003,3.923 1.376,1.04 2.6,2.182 3.723,3.495 -0.046,1.107 -0.716,2.295 -1.988,3.537 -1.613,1.556 -3.5,2.943 -5.629,4.128 -2.179,1.21 -4.415,2.225 -6.665,3.006 -2.638,0.923 -4.016,1.107 -4.7,1.107 m -19.052,-9.034 c -1.309,-1.853 -2.412,-3.852 -3.323,-5.985 -1.617,-3.802 -2.441,-7.92 -2.441,-12.242 0,-4.142 0.75,-8.037 2.214,-11.585 1.475,-3.558 3.544,-6.692 6.162,-9.31 2.607,-2.617 5.736,-4.687 9.308,-6.154 6.654,-2.77 14.859,-3.241 21.825,0.109 1.19,0.563 2.351,1.161 3.493,1.783 -6.354,-1.921 -13.57,-1.086 -19.568,2.604 -3.756,2.302 -7.115,5.27 -9.959,8.821 -2.833,3.513 -5.081,7.475 -6.703,11.769 -1.617,4.329 -2.434,8.546 -2.434,12.554 0,2.698 0.474,5.252 1.426,7.636 m 23.5,-51.612 c -4.661,0 -9.084,0.86 -13.145,2.544 -4.08,1.673 -7.66,4.046 -10.645,7.046 -3,2.999 -5.378,6.59 -7.048,10.644 -1.675,4.049 -2.526,8.471 -2.526,13.151 0,4.881 0.929,9.533 2.768,13.848 1.829,4.302 4.401,8.14 7.647,11.383 3.239,3.24 7.038,5.812 11.316,7.662 4.279,1.846 8.918,2.78 13.78,2.78 3.44,0 6.655,-0.622 9.563,-1.861 2.557,-1.075 5.289,-1.966 8.119,-2.656 l 0.662,-0.293 8.28,-5.515 c 0.947,-0.591 2.149,-1.85 2.149,-4.326 0,-2.172 -1.306,-4.1 -3.868,-5.723 -1.931,-1.203 -3.376,-2.162 -4.382,-2.873 -4.597,-3.6 -9.427,-7.456 -14.378,-11.489 -5.019,-4.092 -10.035,-8.004 -14.882,-11.637 -0.52,-0.559 -1.436,-1.005 -2.423,-1.1 -0.57,-0.061 -1.203,-0.096 -1.88,-0.096 h -1.109 c 2.43,-2.847 5.217,-5.267 8.319,-7.163 5.516,-3.396 12.221,-3.855 17.812,-1.613 2.398,0.952 4.666,2.218 6.754,3.718 -0.019,0 0.559,0.506 1.52,1.337 1.036,0.874 1.704,1.475 2.097,1.868 1.063,0.948 1.96,1.977 2.759,3.102 0.998,1.404 2.207,2.635 3.598,3.686 l 0.548,0.407 h 0.686 c 2.055,0 3.279,-1.288 3.279,-3.135 0,-1.369 -0.601,-2.865 -1.834,-4.584 -1.047,-1.422 -2.292,-2.812 -3.702,-4.17 -1.347,-1.305 -2.766,-2.544 -4.228,-3.672 -1.173,-0.923 -2.149,-1.666 -2.917,-2.253 l -0.389,-0.301 c -3.215,-2.246 -6.653,-4.237 -10.282,-5.974 -3.789,-1.811 -7.836,-2.742 -12.018,-2.742" /></g><g
           transform="translate(429.7419,668.4208)"
           id="g56"><path
             id="path58"
             style="fill:#e66113;fill-opacity:1;fill-rule:nonzero;stroke:none"
             d="m 0,0 c 0,0 -1.242,-1.273 -3.03,-3.735 -0.875,-1.245 -1.876,-2.777 -2.727,-4.631 -0.815,-1.836 -1.546,-4 -1.406,-6.218 0.157,-2.2 1.083,-4.344 2.943,-6.148 1.841,-1.825 4.358,-3.332 7.147,-4.612 2.818,-1.278 5.907,-2.339 9.114,-3.269 1.608,-0.456 3.238,-0.884 4.89,-1.291 l 2.512,-0.577 0.748,-0.166 0.631,-0.177 c 0.423,-0.102 0.877,-0.237 1.344,-0.371 3.575,-1.104 7.167,-2.505 10.306,-5.214 1.544,-1.334 2.978,-3.123 3.643,-5.338 0.687,-2.182 0.489,-4.595 -0.268,-6.473 -1.559,-3.813 -4.263,-6.187 -6.794,-8.125 -2.61,-1.889 -5.256,-3.233 -7.737,-4.333 -4.993,-2.126 -9.355,-3.134 -12.399,-3.711 -1.522,-0.297 -2.734,-0.442 -3.549,-0.573 -0.821,-0.085 -1.263,-0.145 -1.263,-0.145 0,0 0.409,0.159 1.187,0.439 0.774,0.269 1.915,0.683 3.353,1.245 2.855,1.114 6.903,2.78 11.341,5.387 2.201,1.302 4.499,2.851 6.609,4.744 2.085,1.839 4.078,4.163 4.802,6.611 0.727,2.423 -0.11,4.464 -2.344,6.254 -2.193,1.744 -5.297,2.974 -8.424,3.834 l -1.216,0.322 -0.639,0.149 -0.525,0.12 c -0.879,0.191 -1.753,0.378 -2.625,0.587 -1.74,0.382 -3.484,0.888 -5.18,1.376 -3.43,1.04 -6.758,2.299 -9.862,3.919 -3.092,1.638 -6.028,3.63 -8.212,6.346 -2.225,2.646 -3.495,6.201 -3.1,9.296 0.299,3.084 1.581,5.5 2.886,7.333 1.311,1.853 2.689,3.222 3.872,4.259 1.187,1.043 2.187,1.743 2.877,2.207 C -0.396,-0.216 0,0 0,0" /></g><g
           transform="translate(406.4317,679.7751)"
           id="g60"><path
             id="path62"
             style="fill:#e66113;fill-opacity:1;fill-rule:nonzero;stroke:none"
             d="m 0,0 c 0,0 -0.467,-0.322 -1.284,-0.969 -0.814,-0.63 -1.988,-1.61 -3.378,-2.904 -1.372,-1.32 -2.991,-2.965 -4.496,-5.023 -1.461,-2.073 -2.892,-4.567 -3.244,-7.319 -0.097,-0.686 -0.139,-1.383 -0.081,-2.072 0.026,-0.694 0.115,-1.394 0.315,-2.084 0.343,-1.383 1.01,-2.766 1.88,-4.11 1.793,-2.689 4.529,-5.161 7.64,-7.439 3.147,-2.268 6.689,-4.337 10.407,-6.265 1.876,-0.969 3.779,-1.895 5.736,-2.812 0.956,-0.459 1.943,-0.891 2.928,-1.344 l 0.886,-0.385 0.738,-0.368 c 0.491,-0.226 1.029,-0.517 1.556,-0.799 4.132,-2.243 8.221,-4.875 11.44,-9.003 1.563,-2.034 2.895,-4.616 3.164,-7.52 0.316,-2.897 -0.549,-5.822 -1.946,-7.962 -2.861,-4.344 -6.809,-6.608 -10.422,-8.345 -3.684,-1.687 -7.296,-2.67 -10.626,-3.41 -3.339,-0.707 -6.427,-1.043 -9.155,-1.28 -2.729,-0.209 -5.121,-0.209 -7.067,-0.191 -1.949,0.017 -3.481,0.134 -4.51,0.191 -1.042,0.095 -1.586,0.134 -1.586,0.134 0,0 0.544,0.081 1.567,0.244 1.032,0.135 2.529,0.389 4.441,0.718 1.885,0.308 4.19,0.782 6.781,1.387 2.585,0.587 5.472,1.411 8.51,2.469 3.035,1.051 6.263,2.391 9.319,4.224 3.022,1.768 6.029,4.149 7.526,6.929 0.711,1.394 0.999,2.77 0.757,4.117 -0.232,1.345 -0.959,2.752 -2.08,4.089 -2.273,2.685 -5.777,4.967 -9.411,6.799 l -1.417,0.693 -0.75,0.358 -0.628,0.268 c -1.031,0.46 -2.062,0.899 -3.089,1.366 -2.052,0.923 -4.063,1.959 -6.047,2.996 -3.955,2.136 -7.763,4.506 -11.178,7.29 -3.421,2.78 -6.532,5.992 -8.574,9.879 -2.135,3.814 -2.744,8.564 -1.498,12.275 1.148,3.732 3.321,6.402 5.399,8.34 2.082,1.957 4.121,3.294 5.842,4.267 1.717,0.994 3.141,1.609 4.115,2.008 C -0.552,-0.166 0,0 0,0" /></g><g
           transform="translate(416.3057,612.893)"
           id="g64"><path
             id="path66"
             style="fill:#e66113;fill-opacity:1;fill-rule:nonzero;stroke:none"
             d="m 0,0 c -28.489,0 -48.349,-8.295 -48.349,-15.73 0,-7.45 19.86,-15.734 48.349,-15.734 28.486,0 48.339,8.284 48.339,15.734 C 48.339,-8.295 28.486,0 0,0 m 0,-35.574 c -25.424,0 -52.446,6.954 -52.446,19.844 0,12.872 27.022,19.833 52.446,19.833 25.421,0 52.436,-6.961 52.436,-19.833 0,-12.89 -27.015,-19.844 -52.436,-19.844" /></g><g
           transform="translate(416.3057,579.3773)"
           id="g68"><path
             id="path70"
             style="fill:#e66113;fill-opacity:1;fill-rule:nonzero;stroke:none"
             d="m 0,0 c -24.571,0 -45.027,6.204 -49.491,14.414 -0.206,0.032 -0.404,0.075 -0.621,0.121 0,0 8.256,-61.768 50.112,-59.624 0,0 41.855,-5.897 50.102,59.624 0,0 -0.246,-0.099 -0.708,-0.269 C 44.778,6.13 24.416,0 0,0" /></g><g
           transform="translate(462.5658,585.3553)"
           id="g72"><path
             id="path74"
             style="fill:#e66113;fill-opacity:1;fill-rule:nonzero;stroke:none"
             d="m 0,0 2.961,8.875 c 0,0 31.77,5.26 17.996,-22.886 -13.308,-27.191 -32.389,-20.629 -33.73,-20.841 l 2.692,8.882 c 0,0 16.227,-2.958 23.052,13.491 C 17.7,-1.089 16.678,2.794 0,0" /></g><g
           transform="translate(375.7655,439.7764)"
           id="g76"><path
             id="path78"
             style="fill:#e66113;fill-opacity:1;fill-rule:nonzero;stroke:none"
             d="m 0,0 c -2.165,-7.952 -4.206,-15.932 -6.112,-23.919 5.567,0.63 11.144,1.16 16.734,1.613 C 7.223,-14.835 3.705,-7.389 0.055,0 Z m 297.5,-107.302 c -0.211,-1.058 -0.433,-1.857 -0.662,-2.402 -0.231,-0.555 -0.571,-0.87 -1.008,-0.944 -0.44,-0.078 -1.032,0.074 -1.793,0.456 -0.766,0.371 -1.79,0.944 -3.054,1.715 -1.32,0.786 -2.356,1.415 -3.071,1.882 -0.727,0.471 -1.245,0.874 -1.577,1.21 -0.335,0.343 -0.522,0.651 -0.563,0.941 -0.039,0.286 -0.026,0.605 0.053,0.983 0.679,3.828 1.33,7.655 1.953,11.493 -6.553,3.703 -13.16,7.251 -19.832,10.618 -2.73,-2.599 -5.438,-5.213 -8.114,-7.845 -0.292,-0.301 -0.564,-0.524 -0.863,-0.676 -0.29,-0.155 -0.664,-0.208 -1.123,-0.145 -0.464,0.05 -1.062,0.227 -1.795,0.52 -0.74,0.294 -1.691,0.725 -2.846,1.284 -1.233,0.584 -2.193,1.09 -2.858,1.489 -0.665,0.414 -1.06,0.832 -1.2,1.246 -0.136,0.42 -0.038,0.873 0.291,1.368 0.329,0.506 0.87,1.118 1.609,1.851 12.266,12.054 25.054,23.727 38.348,35.011 0.385,0.329 0.779,0.57 1.149,0.708 0.375,0.138 0.859,0.138 1.45,0.014 0.58,-0.138 1.353,-0.428 2.298,-0.874 0.935,-0.439 2.159,-1.068 3.666,-1.885 1.747,-0.924 3.129,-1.698 4.133,-2.296 1.014,-0.601 1.773,-1.132 2.264,-1.585 0.506,-0.449 0.803,-0.887 0.893,-1.301 0.103,-0.393 0.112,-0.888 0.027,-1.458 -2.013,-17.318 -4.602,-34.452 -7.775,-51.378 m -64.901,29.461 c -0.262,-0.134 -0.635,-0.169 -1.106,-0.134 -0.461,0.042 -1.057,0.17 -1.791,0.389 -0.725,0.205 -1.622,0.527 -2.668,0.948 -1.048,0.425 -1.902,0.814 -2.576,1.178 -0.671,0.361 -1.194,0.69 -1.557,0.983 -0.361,0.291 -0.585,0.573 -0.684,0.856 -0.099,0.28 -0.099,0.545 0.005,0.817 5.34,13.623 10.691,27.244 16.026,40.881 -4.906,1.924 -9.841,3.77 -14.788,5.539 -0.302,0.113 -0.539,0.283 -0.693,0.516 -0.157,0.241 -0.253,0.541 -0.292,0.927 -0.034,0.393 0.007,0.863 0.119,1.439 0.114,0.567 0.307,1.239 0.571,2.003 0.292,0.799 0.567,1.453 0.836,1.984 0.274,0.534 0.549,0.931 0.821,1.21 0.27,0.269 0.55,0.442 0.817,0.516 0.265,0.068 0.561,0.039 0.867,-0.063 14.181,-5.073 28.188,-10.764 41.998,-17.089 0.279,-0.123 0.491,-0.304 0.65,-0.555 0.163,-0.241 0.246,-0.559 0.246,-0.952 0.007,-0.389 -0.079,-0.859 -0.256,-1.429 -0.169,-0.573 -0.426,-1.241 -0.778,-2.005 -0.347,-0.74 -0.676,-1.352 -0.988,-1.84 -0.319,-0.488 -0.62,-0.852 -0.919,-1.107 -0.292,-0.24 -0.592,-0.393 -0.884,-0.442 -0.289,-0.064 -0.575,-0.028 -0.84,0.103 -4.825,2.203 -9.67,4.34 -14.538,6.391 -5.678,-13.498 -11.364,-26.985 -17.041,-40.483 -0.108,-0.248 -0.301,-0.453 -0.557,-0.581 m -18.272,61.633 c -0.103,-0.583 -0.299,-1.276 -0.564,-2.069 -0.252,-0.771 -0.515,-1.425 -0.766,-1.938 -0.264,-0.52 -0.529,-0.923 -0.785,-1.203 -0.258,-0.279 -0.543,-0.474 -0.819,-0.559 -0.285,-0.085 -0.566,-0.074 -0.844,0.018 -4.982,1.634 -9.984,3.191 -15.01,4.662 -4.137,-14.043 -8.275,-28.079 -12.404,-42.125 -0.079,-0.265 -0.235,-0.485 -0.487,-0.64 -0.248,-0.167 -0.605,-0.255 -1.065,-0.265 -0.475,-0.018 -1.072,0.052 -1.813,0.173 -0.745,0.134 -1.657,0.343 -2.731,0.643 -1.084,0.305 -1.965,0.584 -2.663,0.878 -0.703,0.279 -1.258,0.548 -1.649,0.792 -0.387,0.255 -0.647,0.513 -0.775,0.778 -0.122,0.273 -0.148,0.538 -0.077,0.807 3.792,14.135 7.569,28.28 11.352,42.415 -5.044,1.351 -10.109,2.632 -15.188,3.824 -0.317,0.07 -0.572,0.222 -0.747,0.435 -0.175,0.208 -0.309,0.502 -0.387,0.887 -0.073,0.379 -0.092,0.853 -0.041,1.43 0.048,0.583 0.175,1.266 0.358,2.065 0.187,0.818 0.395,1.507 0.599,2.059 0.218,0.57 0.441,0.994 0.676,1.295 0.242,0.304 0.488,0.509 0.751,0.601 0.253,0.099 0.547,0.11 0.86,0.035 14.554,-3.42 28.986,-7.47 43.26,-12.147 0.283,-0.099 0.521,-0.261 0.704,-0.473 0.188,-0.227 0.299,-0.531 0.347,-0.917 0.048,-0.382 0.014,-0.87 -0.092,-1.461 M 143.06,-49.511 c -0.056,-0.272 -0.196,-0.502 -0.431,-0.686 -0.23,-0.184 -0.577,-0.293 -1.032,-0.347 -0.456,-0.049 -1.057,-0.049 -1.798,0.011 -0.737,0.06 -1.664,0.187 -2.782,0.403 -1.104,0.209 -1.995,0.418 -2.722,0.637 -0.722,0.209 -1.279,0.425 -1.686,0.644 -0.417,0.219 -0.695,0.445 -0.845,0.704 -0.148,0.258 -0.196,0.52 -0.148,0.799 2.973,16.89 5.951,33.781 8.924,50.664 0.046,0.276 0.2,0.51 0.449,0.694 0.249,0.19 0.637,0.307 1.155,0.36 0.522,0.046 1.188,0.029 2.013,-0.039 0.815,-0.056 1.839,-0.201 3.061,-0.428 1.249,-0.233 2.266,-0.488 3.064,-0.718 0.79,-0.237 1.406,-0.477 1.864,-0.718 0.451,-0.219 0.757,-0.47 0.925,-0.739 0.157,-0.255 0.21,-0.531 0.157,-0.799 -3.391,-16.817 -6.784,-33.629 -10.168,-50.442 M 125.098,5.461 c -0.193,-0.565 -0.564,-1.305 -1.086,-2.217 -8.486,-15.062 -16.409,-30.311 -23.772,-45.73 -0.196,-0.453 -0.422,-0.82 -0.688,-1.086 -0.256,-0.265 -0.66,-0.453 -1.201,-0.548 -0.543,-0.095 -1.266,-0.127 -2.172,-0.071 -0.903,0.036 -2.074,0.138 -3.539,0.269 -1.162,0.103 -2.157,0.202 -2.991,0.28 -0.818,0.088 -1.519,0.18 -2.099,0.286 -0.582,0.103 -1.054,0.226 -1.408,0.364 -0.355,0.142 -0.645,0.308 -0.879,0.489 -0.238,0.191 -0.42,0.403 -0.528,0.647 -0.112,0.255 -0.209,0.569 -0.307,0.937 -4.448,16.466 -9.472,32.886 -15.082,49.207 -0.347,1.022 -0.555,1.829 -0.619,2.419 -0.057,0.591 0.125,1.023 0.537,1.299 0.419,0.29 1.122,0.445 2.098,0.47 0.98,0.032 2.352,0.007 4.109,-0.081 1.496,-0.075 2.661,-0.167 3.512,-0.269 0.847,-0.096 1.491,-0.241 1.93,-0.403 0.445,-0.17 0.748,-0.4 0.916,-0.683 0.163,-0.294 0.311,-0.658 0.445,-1.093 4.231,-14.294 8.05,-28.645 11.452,-43.013 0.02,-0.007 0.03,-0.007 0.044,-0.007 5.876,13.456 12.144,26.805 18.806,40.038 0.191,0.456 0.393,0.817 0.633,1.079 0.227,0.269 0.588,0.463 1.072,0.573 0.492,0.109 1.182,0.141 2.063,0.085 0.884,-0.053 2.081,-0.177 3.597,-0.389 1.494,-0.209 2.644,-0.404 3.45,-0.609 0.814,-0.205 1.361,-0.481 1.615,-0.845 0.265,-0.364 0.29,-0.821 0.092,-1.398 M 30.54,-41.672 c -0.314,-0.311 -0.87,-0.52 -1.687,-0.63 -0.808,-0.106 -1.926,-0.191 -3.357,-0.258 -1.487,-0.074 -2.654,-0.124 -3.491,-0.135 -0.829,-0.006 -1.47,0.05 -1.908,0.142 -0.455,0.092 -0.757,0.251 -0.95,0.467 -0.196,0.216 -0.363,0.502 -0.499,0.852 -1.514,3.566 -3.054,7.114 -4.623,10.651 -7.26,-0.534 -14.519,-1.227 -21.763,-2.087 -0.803,-3.672 -1.581,-7.343 -2.324,-11.015 -0.067,-0.41 -0.185,-0.76 -0.334,-1.043 -0.165,-0.294 -0.44,-0.538 -0.842,-0.747 -0.389,-0.209 -0.974,-0.385 -1.739,-0.548 -0.758,-0.166 -1.756,-0.318 -3.008,-0.499 -1.332,-0.18 -2.373,-0.286 -3.145,-0.325 -0.764,-0.029 -1.314,0.106 -1.655,0.375 -0.338,0.279 -0.504,0.714 -0.504,1.305 0,0.601 0.097,1.412 0.308,2.437 3.44,16.798 7.475,33.586 12.129,50.321 0.134,0.492 0.322,0.905 0.546,1.227 0.229,0.315 0.618,0.591 1.168,0.8 0.55,0.216 1.321,0.4 2.325,0.548 1,0.142 2.33,0.305 3.992,0.46 1.91,0.184 3.442,0.297 4.576,0.361 1.148,0.053 2.041,0.025 2.684,-0.067 0.646,-0.11 1.12,-0.305 1.419,-0.587 0.304,-0.284 0.573,-0.697 0.81,-1.2 7.725,-15.546 14.862,-31.258 21.416,-47.102 0.388,-0.997 0.639,-1.786 0.755,-2.373 0.105,-0.58 0.016,-1.029 -0.299,-1.33 m -62.802,-6.18 c -0.086,-0.364 -0.222,-0.633 -0.421,-0.817 -0.18,-0.194 -0.41,-0.318 -0.67,-0.361 -9.372,-1.68 -18.707,-3.629 -27.994,-5.875 -0.942,-0.23 -1.809,-0.159 -2.575,0.223 -0.775,0.368 -1.31,1.149 -1.611,2.349 -3.84,15.355 -7.672,30.72 -11.503,46.072 -0.301,1.21 -0.152,2.151 0.426,2.865 0.587,0.708 1.41,1.192 2.459,1.454 10.284,2.483 20.639,4.652 31.035,6.509 0.282,0.06 0.554,0.028 0.8,-0.068 0.258,-0.098 0.484,-0.304 0.714,-0.625 0.22,-0.315 0.416,-0.747 0.595,-1.263 0.175,-0.52 0.332,-1.203 0.475,-2.027 0.142,-0.778 0.209,-1.444 0.227,-1.995 0.016,-0.552 -0.027,-1.008 -0.124,-1.373 -0.103,-0.357 -0.246,-0.633 -0.442,-0.817 -0.198,-0.194 -0.432,-0.318 -0.722,-0.368 -7.313,-1.301 -14.596,-2.773 -21.86,-4.4 0.969,-4.329 1.937,-8.645 2.906,-12.982 5.983,1.341 11.995,2.572 18.017,3.693 0.277,0.05 0.541,0.014 0.801,-0.092 0.271,-0.102 0.488,-0.315 0.708,-0.598 0.215,-0.29 0.403,-0.689 0.576,-1.224 0.173,-0.512 0.338,-1.174 0.484,-1.938 0.14,-0.803 0.218,-1.471 0.236,-2.009 0.026,-0.534 -0.004,-0.983 -0.108,-1.323 -0.094,-0.354 -0.242,-0.612 -0.446,-0.789 -0.2,-0.184 -0.435,-0.308 -0.716,-0.353 -5.918,-1.101 -11.813,-2.307 -17.7,-3.619 1.11,-5.005 2.23,-10 3.348,-14.998 6.803,1.517 13.625,2.883 20.475,4.114 0.256,0.046 0.516,0.007 0.76,-0.099 0.248,-0.124 0.476,-0.333 0.687,-0.623 0.203,-0.314 0.389,-0.735 0.548,-1.256 0.177,-0.534 0.325,-1.195 0.467,-1.991 0.14,-0.81 0.219,-1.486 0.242,-2.037 0.023,-0.556 -0.005,-1.002 -0.094,-1.359 m -52.496,-12.423 c -0.276,-0.435 -0.663,-0.813 -1.141,-1.121 -0.473,-0.301 -0.98,-0.534 -1.512,-0.7 -1.588,-0.478 -3.169,-0.963 -4.741,-1.461 -0.991,-0.308 -1.868,-0.488 -2.643,-0.531 -0.778,-0.035 -1.549,0.078 -2.319,0.372 -0.762,0.308 -1.568,0.774 -2.41,1.439 -0.846,0.644 -1.836,1.518 -2.998,2.607 -7.274,6.523 -14.779,12.883 -22.501,19.087 -1.351,1.118 -2.771,2.331 -4.258,3.644 -1.486,1.323 -2.867,2.614 -4.153,3.908 -0.035,-0.028 -0.062,-0.028 -0.088,-0.042 0.847,-1.847 1.639,-3.69 2.419,-5.547 0.769,-1.853 1.537,-3.781 2.303,-5.769 3.366,-8.885 6.745,-17.764 10.125,-26.646 0.099,-0.262 0.113,-0.523 0.039,-0.799 -0.074,-0.262 -0.269,-0.538 -0.584,-0.824 -0.328,-0.29 -0.776,-0.591 -1.393,-0.913 -0.598,-0.333 -1.405,-0.679 -2.391,-1.076 -0.977,-0.381 -1.792,-0.668 -2.452,-0.834 -0.663,-0.177 -1.2,-0.269 -1.616,-0.262 -0.425,-0.007 -0.738,0.067 -0.961,0.216 -0.219,0.148 -0.392,0.361 -0.488,0.619 -6.149,15.125 -12.295,30.24 -18.431,45.372 -0.493,1.224 -0.447,2.31 0.149,3.251 0.592,0.958 1.511,1.68 2.741,2.164 2.172,0.864 4.353,1.709 6.532,2.537 1.18,0.452 2.197,0.728 3.065,0.87 0.865,0.127 1.691,0.11 2.467,-0.05 0.784,-0.159 1.576,-0.498 2.388,-0.99 0.81,-0.502 1.7,-1.153 2.653,-1.974 6.123,-4.846 12.115,-9.795 17.964,-14.838 1.031,-0.927 2.053,-1.84 3.056,-2.735 0.988,-0.898 1.968,-1.807 2.923,-2.724 0.945,-0.919 1.865,-1.818 2.763,-2.716 0.902,-0.884 1.781,-1.783 2.64,-2.689 0.016,0.004 0.034,0.011 0.038,0.025 -0.669,1.836 -1.359,3.771 -2.054,5.791 -0.684,2.016 -1.321,3.951 -1.908,5.79 -2.581,8.122 -5.159,16.24 -7.74,24.361 -0.086,0.262 -0.06,0.545 0.055,0.821 0.115,0.262 0.374,0.552 0.755,0.86 0.395,0.293 0.936,0.583 1.642,0.87 0.7,0.297 1.622,0.619 2.747,0.965 1.075,0.326 1.986,0.566 2.727,0.711 0.748,0.146 1.337,0.195 1.783,0.156 0.443,-0.042 0.779,-0.148 0.99,-0.318 0.224,-0.174 0.38,-0.393 0.453,-0.655 4.596,-15.663 9.191,-31.326 13.786,-46.996 0.184,-0.615 0.225,-1.202 0.14,-1.751 -0.078,-0.555 -0.264,-1.046 -0.561,-1.475 M -147.04,-84.37 c -0.339,-0.319 -0.835,-0.669 -1.48,-1.055 -0.644,-0.392 -1.496,-0.838 -2.545,-1.329 -1.024,-0.482 -1.91,-0.86 -2.623,-1.108 -0.725,-0.251 -1.327,-0.414 -1.787,-0.488 -0.473,-0.07 -0.836,-0.039 -1.108,0.074 -0.271,0.124 -0.465,0.305 -0.6,0.556 -7.488,15.433 -14.978,30.859 -22.476,46.285 -0.123,0.247 -0.129,0.523 -0.039,0.82 0.094,0.305 0.352,0.619 0.761,0.97 0.394,0.353 0.96,0.746 1.678,1.181 0.711,0.442 1.645,0.934 2.791,1.468 1.176,0.548 2.158,0.962 2.961,1.235 0.787,0.283 1.438,0.459 1.952,0.544 0.515,0.071 0.906,0.053 1.202,-0.063 0.284,-0.121 0.493,-0.301 0.608,-0.552 7.106,-15.606 14.202,-31.227 21.305,-46.83 0.122,-0.258 0.132,-0.53 0.053,-0.81 -0.082,-0.29 -0.299,-0.583 -0.653,-0.898 m -22.877,-11.203 c -0.129,-0.251 -0.322,-0.449 -0.582,-0.59 -7.883,-4.164 -15.67,-8.564 -23.357,-13.194 -0.864,-0.513 -1.727,-0.712 -2.59,-0.605 -0.865,0.117 -1.626,0.696 -2.273,1.747 -8.618,14.057 -17.235,28.121 -25.843,42.178 -0.142,0.234 -0.195,0.506 -0.122,0.814 0.078,0.311 0.283,0.654 0.645,1.043 0.363,0.379 0.888,0.832 1.583,1.348 0.692,0.52 1.594,1.103 2.69,1.762 1.141,0.672 2.085,1.178 2.86,1.549 0.768,0.346 1.41,0.594 1.919,0.729 0.502,0.134 0.911,0.148 1.213,0.074 0.301,-0.089 0.524,-0.255 0.658,-0.495 7.312,-12.646 14.636,-25.299 21.951,-37.941 5.417,3.134 10.887,6.165 16.398,9.073 0.278,0.138 0.543,0.191 0.821,0.163 0.27,-0.025 0.561,-0.156 0.867,-0.407 0.289,-0.237 0.605,-0.594 0.94,-1.075 0.34,-0.463 0.699,-1.076 1.086,-1.825 0.393,-0.743 0.69,-1.387 0.885,-1.935 0.198,-0.545 0.318,-1.023 0.364,-1.429 0.048,-0.407 0,-0.736 -0.113,-0.984 M 50.681,62.351 c -138.058,0 -267.101,-54.208 -354.067,-148.72 l 70.249,-22.759 34.03,-73.196 c 60.212,65.436 151.25,102.969 249.788,102.969 98.522,0 189.574,-37.533 249.774,-102.969 l 27.067,66.773 77.241,29.182 C 317.779,8.143 188.724,62.351 50.681,62.351 M 274.214,-74.996 c 5.115,-2.625 10.196,-5.349 15.242,-8.161 1.244,8.15 2.36,16.339 3.338,24.563 -0.011,0.014 -0.02,0.014 -0.029,0.024 -6.298,-5.39 -12.481,-10.862 -18.551,-16.426" /></g><g
           transform="translate(726.9451,418.6908)"
           id="g80"><path
             id="path82"
             style="fill:#e66113;fill-opacity:1;fill-rule:nonzero;stroke:none"
             d="m 0,0 c -174.22,138.342 -427.101,138.335 -601.32,0 l -2.55,3.212 c 85.5,67.883 193.176,105.279 303.206,105.279 110.038,0 217.712,-37.396 303.2,-105.279 z" /></g><g
           transform="translate(212.9086,258.5563)"
           id="g84"><path
             id="path86"
             style="fill:#e66113;fill-opacity:1;fill-rule:nonzero;stroke:none"
             d="m 0,0 -2.761,3.042 c 59.049,53.731 135.808,83.313 216.133,83.313 80.333,0 157.084,-29.582 216.126,-83.313 L 426.743,0 C 307.092,108.876 119.642,108.866 0,0" /></g><g
           transform="translate(249.0949,255.617)"
           id="g88"><path
             id="path90"
             style="fill:#e66113;fill-opacity:1;fill-rule:nonzero;stroke:none"
             d="m 0,0 -2.763,3.028 c 49.168,44.742 113.07,69.383 179.949,69.383 66.884,0 130.784,-24.641 179.95,-69.383 L 354.369,0 C 255.027,90.412 99.359,90.412 0,0" /></g><g
           transform="translate(697.3367,442.0935)"
           id="g92"><path
             id="path94"
             style="fill:#e66113;fill-opacity:1;fill-rule:nonzero;stroke:none"
             d="m 0,0 c -3.815,23.462 -24.497,39.776 -42.583,47.226 -18.972,7.838 -40.104,9.805 -60.53,11.726 l -5.997,0.562 c -22.58,2.172 -46.331,5.274 -66.704,17.064 -8.873,5.132 -20.302,14.085 -24.322,27.583 -5.237,17.69 4.514,35.645 16.505,45.606 12.287,10.198 27.739,13.845 40.346,9.519 7.501,-2.576 13.977,-8.642 17.329,-16.233 2.881,-6.537 3.06,-13.377 0.502,-19.257 -3.04,-6.975 -10.877,-11.796 -19.535,-11.991 -7.597,-0.184 -14.044,3.304 -16.973,9.303 l 3.693,1.797 c 2.193,-4.51 6.963,-7.032 13.182,-6.986 5.901,0.128 13.093,3.123 15.859,9.508 2.106,4.822 1.931,10.492 -0.483,15.964 -2.893,6.565 -8.466,11.803 -14.91,14.007 -13.454,4.63 -27.617,-1.507 -36.387,-8.786 -10.95,-9.095 -19.901,-25.387 -15.193,-41.277 3.633,-12.203 14.211,-20.445 22.449,-25.202 19.648,-11.366 42.904,-14.404 65.038,-16.537 l 5.987,-0.566 C -81.997,61.099 -60.56,59.093 -41.02,51.025 -21.906,43.151 -0.032,25.783 4.046,0.654 Z" /></g><g
           transform="translate(705.2351,486.9954)"
           id="g96"><path
             id="path98"
             style="fill:#e66113;fill-opacity:1;fill-rule:nonzero;stroke:none"
             d="m 0,0 c 1.571,-0.799 3.205,-1.436 4.933,-1.861 4.238,-1.036 9.657,0.549 12.628,3.689 1.176,1.246 2.433,3.273 1.666,5.766 -0.502,1.645 -1.857,3.032 -3.81,3.912 -2.582,1.168 -5.813,1.196 -8.219,0.1 C 2.51,9.465 0.25,4.347 0,0 m 41.221,-40.36 c -0.428,0 -0.857,0.004 -1.291,0.021 -14.971,0.541 -32.38,10.679 -38.821,22.6 -2.23,4.145 -4.759,9.515 -5.175,15.295 -5.202,3.158 -9.471,7.605 -13.128,11.407 -24.112,25.104 -56.526,19.459 -87.867,14.004 -19.661,-3.413 -38.233,-6.65 -53.59,-1.945 l 1.198,3.933 c 14.418,-4.421 32.521,-1.273 51.688,2.059 30.901,5.373 65.909,11.46 91.535,-15.217 2.985,-3.102 6.402,-6.664 10.36,-9.448 0.939,5.815 4.42,10.732 9.367,12.992 3.479,1.595 7.939,1.564 11.604,-0.085 3.049,-1.376 5.201,-3.668 6.056,-6.459 1.036,-3.424 0.115,-6.901 -2.618,-9.78 -3.969,-4.203 -10.93,-6.229 -16.583,-4.864 -1.241,0.3 -2.431,0.7 -3.586,1.167 0.79,-4.092 2.669,-7.98 4.352,-11.107 5.727,-10.597 21.913,-19.971 35.352,-20.445 5.866,-0.227 13.721,1.118 18.508,8.638 l 3.463,-2.2 C 57.643,-36.72 50.454,-40.36 41.221,-40.36" /></g><g
           transform="translate(155.547,442.9567)"
           id="g100"><path
             id="path102"
             style="fill:#e66113;fill-opacity:1;fill-rule:nonzero;stroke:none"
             d="m 0,0 -4.045,0.658 c 4.089,25.118 25.958,42.482 45.07,50.363 19.542,8.058 40.96,10.071 61.681,12.005 l 6.011,0.57 c 22.117,2.119 45.364,5.15 65.054,16.537 8.229,4.764 18.809,13.006 22.43,25.196 4.708,15.892 -4.236,32.174 -15.188,41.276 -8.756,7.276 -22.912,13.416 -36.386,8.79 -6.445,-2.207 -12.016,-7.45 -14.913,-14.018 -2.407,-5.469 -2.583,-11.132 -0.489,-15.95 2.785,-6.395 9.98,-9.391 15.867,-9.515 6.014,-0.106 10.986,2.483 13.188,6.989 l 3.692,-1.797 c -2.932,-5.992 -9.366,-9.416 -16.972,-9.302 -8.648,0.198 -16.502,5.005 -19.537,11.984 -2.561,5.886 -2.376,12.713 0.502,19.249 3.346,7.599 9.823,13.665 17.331,16.236 12.606,4.327 28.061,0.68 40.345,-9.515 11.983,-9.954 21.733,-27.905 16.491,-45.591 C 196.137,90.67 184.701,81.714 175.815,76.578 155.425,64.777 131.676,61.683 109.105,59.507 l -6.019,-0.562 C 82.66,57.02 61.559,55.046 42.585,47.229 24.51,39.766 3.82,23.448 0,0" /></g><g
           transform="translate(136.5503,500.281)"
           id="g104"><path
             id="path106"
             style="fill:#e66113;fill-opacity:1;fill-rule:nonzero;stroke:none"
             d="m 0,0 c -1.463,0 -2.963,-0.311 -4.312,-0.92 -1.949,-0.873 -3.302,-2.267 -3.808,-3.915 -0.765,-2.498 0.481,-4.514 1.666,-5.773 2.973,-3.13 8.399,-4.705 12.611,-3.686 1.752,0.432 3.386,1.061 4.959,1.85 C 10.865,-8.093 8.588,-2.953 3.923,-0.82 2.731,-0.272 1.381,0 0,0 m -30.111,-52.793 c -9.239,0 -16.42,3.636 -20.831,10.569 l 3.462,2.207 c 4.792,-7.538 12.737,-8.871 18.517,-8.641 13.44,0.474 29.624,9.837 35.341,20.448 1.683,3.117 3.56,6.994 4.356,11.108 -1.152,-0.471 -2.344,-0.871 -3.594,-1.178 -5.637,-1.39 -12.609,0.661 -16.577,4.856 -2.729,2.887 -3.656,6.367 -2.607,9.788 0.861,2.801 2.997,5.083 6.041,6.448 3.688,1.656 8.129,1.705 11.62,0.103 4.943,-2.254 8.427,-7.191 9.37,-13.01 3.854,2.724 7.227,6.225 10.345,9.473 25.633,26.681 60.641,20.579 91.535,15.206 19.172,-3.335 37.272,-6.494 51.697,-2.069 l 1.201,-3.916 c -15.371,-4.722 -33.937,-1.485 -53.6,1.942 -31.342,5.462 -63.754,11.097 -87.872,-14.004 -3.656,-3.81 -7.928,-8.249 -13.118,-11.404 -0.426,-5.801 -2.956,-11.17 -5.182,-15.302 -6.435,-11.913 -23.836,-22.048 -38.804,-22.599 -0.435,-0.018 -0.874,-0.025 -1.3,-0.025" /></g></g></g></g></svg>